<svg xmlns="http://www.w3.org/2000/svg" viewBox="0 0 497 239"><path fill="#3a393b" d="M50.77 191.37v-3.09h11.66v11.8a16.3 16.3 0 0 1-12.65 5.9c-9.77 0-17.11-6.63-17.11-16.43 0-9.43 7.71-16.42 17.14-16.42 4.68 0 8.95 2.18 11.8 5.35l-2.45 1.9a12.97 12.97 0 0 0-9.38-4.17c-7.77 0-13.53 5.54-13.53 13.34 0 8.12 5.45 13.34 13.56 13.34 3.68 0 6.9-1.27 9.26-3.49v-8.03h-8.3zm27.48-5.81c-4.95 0-7.99 4.18-7.99 8.8 0 4.63 3.04 8.8 7.99 8.8s7.99-4.17 7.99-8.8c0-4.63-3.04-8.8-7.99-8.8m11.16 8.8c0 6.44-4.58 11.62-11.16 11.62s-11.16-5.17-11.16-11.62c0-6.44 4.58-11.61 11.16-11.61s11.16 5.17 11.16 11.61"/><path fill="#3a393b" d="M93.63 171.41h3.09v34.03h-3.09z"/><path fill="#3a393b" d="M119.59 189.06a9.32 9.32 0 0 0-7.04-3.5c-4.8 0-8.25 4-8.25 8.71 0 4.76 3.4 8.9 8.25 8.9 2.73 0 5.77-1.6 7.04-4.18v-9.94zm0 13.51a8.92 8.92 0 0 1-7.12 3.4 11.33 11.33 0 0 1-11.35-11.52c0-6.3 4.9-11.7 11.4-11.7 2.48 0 5.16.95 7.07 2.72V171.4h3.08v34.02h-3.08v-2.86zm19.42-17.19c-4.27 0-7.03 3-7.67 7.12h14.48c-.18-3.72-3.04-7.12-6.8-7.12m-7.77 9.75c.27 4.27 3.09 8.22 7.9 8.22 2.95 0 5.44-.82 7.03-3.81l2.18 1.4c-1.77 3.31-5.63 5.04-8.99 5.04-7.26 0-11.2-5.27-11.2-11.75 0-6.54 4.8-11.48 10.84-11.48 5.72 0 9.85 4.85 9.85 10.34 0 .73-.1 1.64-.14 2.04h-17.47zm25.95-11.84v3.9a8.74 8.74 0 0 1 7.9-4.44c6.3 0 8.35 4.04 8.35 10.7v11.98h-3.09v-11.48c0-4.17-.77-8.39-5.72-8.39-3.31 0-5.99 2.36-7.44 5.17v14.7h-3.08V183.3h3.08zm52.46 8.08v-3.09h11.66v11.8a16.3 16.3 0 0 1-12.66 5.9c-9.75 0-17.1-6.63-17.1-16.43 0-9.43 7.7-16.42 17.15-16.42 4.67 0 8.93 2.18 11.79 5.35l-2.45 1.9a12.97 12.97 0 0 0-9.39-4.17c-7.76 0-13.52 5.54-13.52 13.34 0 8.12 5.44 13.34 13.57 13.34a13.3 13.3 0 0 0 9.25-3.49v-8.03h-8.3zm26.47 2.99c-3.04 0-6.58 1.23-6.58 4.68 0 2.67 2.08 4.4 4.67 4.4 2.55 0 5-1.32 7.08-3.32V195a21.7 21.7 0 0 0-5.17-.64m5.26 8.49a9.52 9.52 0 0 1-7.26 3.12c-4.08 0-7.67-2.4-7.67-6.57 0-5.45 5.08-7.58 9.8-7.58 1.5 0 3.05.18 5.04.69v-1.23c0-3.68-1.81-5.72-5.67-5.72-2.59 0-5.49.95-7.22 1.9l-1.04-2.76a22.24 22.24 0 0 1 8.4-1.95c6.57 0 8.62 3.45 8.62 9.16v13.52h-2.78l-.22-2.58zm13.11-16.75v12.21c0 4 1.37 4.72 3.41 4.72.82 0 1.72-.23 2.72-.6l.78 2.46c-1 .54-2.23.95-3.54.95-4.31 0-6.45-2.58-6.45-7.17V186.1h-3.13v-2.81h3.13v-5.53h3.09v5.53h6.44v2.81h-6.44zm19.6-.72c-4.27 0-7.04 3-7.67 7.12h14.48c-.18-3.72-3.04-7.12-6.8-7.12m-7.76 9.75c.27 4.27 3.08 8.22 7.89 8.22 2.95 0 5.44-.82 7.03-3.81l2.18 1.4c-1.77 3.31-5.63 5.04-8.99 5.04-7.25 0-11.2-5.27-11.2-11.75 0-6.54 4.8-11.48 10.84-11.48 5.71 0 9.85 4.85 9.85 10.34 0 .73-.1 1.64-.14 2.04h-17.46zm45.42 10.3h-3.13l-11.03-31.76h3.86l8.8 26.68h.04l10.08-26.68h3.58l-12.2 31.76zm21.51-20.05c-4.26 0-7.03 3-7.67 7.12h14.47c-.17-3.72-3.03-7.12-6.8-7.12m-7.76 9.75c.27 4.27 3.09 8.22 7.9 8.22 2.95 0 5.44-.82 7.03-3.81l2.18 1.4c-1.77 3.31-5.62 5.04-8.99 5.04-7.26 0-11.2-5.27-11.2-11.75 0-6.54 4.8-11.48 10.84-11.48 5.72 0 9.85 4.85 9.85 10.34 0 .73-.1 1.64-.14 2.04h-17.47zm25.56-11.84v3.9a8.74 8.74 0 0 1 7.9-4.44c6.3 0 8.35 4.04 8.35 10.7v11.98h-3.1v-11.48c0-4.17-.76-8.39-5.7-8.39-3.32 0-6 2.36-7.44 5.17v14.7h-3.1V183.3h3.1zm26.05 2.81v12.21c0 4 1.36 4.72 3.4 4.72a8 8 0 0 0 2.72-.6l.77 2.46c-1 .54-2.22.95-3.54.95-4.3 0-6.44-2.58-6.44-7.17V186.1h-3.12v-2.81h3.12v-5.53h3.09v5.53h6.44v2.81h-6.44zm27.68 19.33v-3.9a8.75 8.75 0 0 1-7.9 4.45c-6.3 0-8.34-4.04-8.34-10.71v-11.98h3.08v11.48c0 4.18.77 8.4 5.72 8.4 3.31 0 5.98-2.37 7.44-5.17v-14.7h3.08v22.13h-3.08zm11.91-17.96c1.22-2.45 3.36-4.72 6.44-4.72.6 0 1.23.04 1.87.18l-.41 3.4a4.38 4.38 0 0 0-2.09-.4c-2.54 0-4.22 1.9-5.8 4.71v14.8h-3.1v-22.15h3.1v4.18zm19.87-2.09c-4.26 0-7.04 3-7.67 7.12h14.47c-.18-3.72-3.04-7.12-6.8-7.12m-7.76 9.75c.27 4.27 3.09 8.22 7.9 8.22 2.94 0 5.44-.82 7.03-3.81l2.18 1.4c-1.78 3.31-5.63 5.04-8.99 5.04-7.26 0-11.21-5.27-11.21-11.75 0-6.54 4.81-11.48 10.85-11.48 5.72 0 9.85 4.85 9.85 10.34 0 .73-.1 1.64-.14 2.04h-17.47zm32.44-8.16a7.5 7.5 0 0 0-4.5-1.6c-1.72 0-3.9.96-3.9 3.05 0 2.63 2.86 3.5 5.67 4.67 2.73 1.14 5.4 2.68 5.4 6.63 0 3.9-4.08 6.26-7.8 6.26-2.5 0-5.04-1-6.85-3l1.86-1.95a6.8 6.8 0 0 0 5.08 2.31c2.14 0 4.63-1.13 4.63-3.67s-2.36-3.45-4.86-4.44c-2.9-1.18-6.03-2.5-6.03-6.54 0-3.81 3.17-5.94 6.9-5.94 2.31 0 4.35.73 6.08 2.13l-1.68 2.09z"/><path fill="#b92025" fill-rule="nonzero" d="M220.43 128.25s-13.48 5.14-15.42 5.98c-1.93.83-.16.38-.16.38s13.8-4.98 15.9-5.87c2.1-.89-.32-.5-.32-.5"/><path fill="#b92025" fill-rule="nonzero" d="M365.9 95.68c-6.27-2.29-12.75-4.72-21.6-6.73 7.1 1 14.98 1.12 20.28-1.7 0 0 .98-.48 1.8-.31-.06.78-.27 4.5-.47 8.74m-.33 8.67c-19.97-3.38-50.41-5.42-93.24-.58l-2.3.27-.37.05a201.2 201.2 0 0 0-2.37.31l-9.17 1.21-.3-6.95v-.4c0-2.58-.08-3.36-.15-3.59v-.08.05c-.04-.1-.07-.01-.07-.01-.36.14-.67 9.54-.67 9.54-.07 1.34-.13 1.57-.3 1.64h-.02l-.15.03c-.29-.02-.22-1.85-.22-1.85v.01l.22-16.64 7.6-1.19v.01l.57-.09c1.79-.22 3.62-.4 5.47-.54l-1.77-.04 1.8.03c3.74-.29 7.62-.41 11.6-.4v-.02s1.35.04 1.3-.17c-.06-.22-.5-.34-1.62-.47l-17.02-1.27c-.05-.04-.13-.16.06-.2l25.37-.03-2.38-.25h.03s-.17-.07.07-.1l6.53.25c.07 0 .31.04.1.1h-4.35l8.4 1c.1.04.33.12-.05.15l-13.39-.18c-.46.04-.54.11-.52.18.03.13.59.14.59.14l2.91.15 8.08.76v-.02s5.79.5 6.33.53h-.01c.42.04.8.09.8.18 0 .07-.34.1-.68.08h-.04c-.35.01-.8.02-1.16.01-.35 0-.3.05-.25.08 0 .02.03.03.18.04.84.08 2.44.13 3.39.22 22.13 2.28 47.14 7.2 61.4 11.9-.1 2.2-.18 3.96-.23 6.15m-81.96-22.03h.05s.53.12.05.17l-19.39-.7c-.05-.03-.09-.07.07-.09l14.26.1-2.49-.28c-.07-.02-.14-.08.12-.1 2.96.07 10.27.25 16.09.37.1.02.2.07.08.1l-13.8-.1 4.96.53zm-27.96-9.68v.05c0 .02 0 .06-.02.09a.27.27 0 0 1-.05.07.1.1 0 0 1-.04.02c-.07.02-.1-.06-.12-.12l-.01-.05-.93-4.63c-.26-1.06-.48-.31-.48-.29l-.89 11.4-.14.02h-.02l.63-15.6.06-1.37.28-7.06.04-.86v-.02s0-.18.12-.19c.13 0 .13.16.13.16l.01.32.45 8.57s.02.89.17.9c.03 0 .06-.02.08-.06l.01-.03a.73.73 0 0 0 .03-.11v-.01l.02-.13v-.02l.01-.14a2.33 2.33 0 0 0 0-.3l.24-9.3c0-.03.01-.06.06-.07.07 0 .09.05.1.11l.02.1.78 4.6c.03.06.18.38.23.02l-.04-1.11c0-.46.03-1.18.06-1.66l.05-.44v-.06a.5.5 0 0 1 .14-.28l.01-.01a.7.7 0 0 1 .05-.04c.13-.08.33-.11.61.08l.72.64.44.4v-.01l2.22 1.98s5.81 4.4 7.52 5.18c6.88 4.26 17.31 9.52 32.45 14.5 7.9 2.6 14.85 4.78 20.91 6.6a249.06 249.06 0 0 0-56.54-5.79l-1.13.02v.02l-7.25.3s.38-11.45.37-14.86V63.1l.01-.29c.05-1.85.05-2.47 0-2.67-.04-.25-.07-.23-.13-.23-.07 0-.17.31-.17.31a33.62 33.62 0 0 0-.51 4.03l-.56 8.39m-32.72 52.54v-.01l.38-.13-.38.14zm-14.44 4.46l-10.2 3.7-15.44 5.1c-1.4.45-.64.05-.25-.15l12.4-4.37c1.02-.39 4.75-1.78 5.23-2v.01c4.31-1.72 11.65-4.56 12.04-4.3.3.2-1.56 1.1-3.78 2.01m-35.33 12.01l-.83.28.85-.3-.02.02zm11.83-.16l-2.05.7 2.05-.7zm200.9-39.8c-13.7-10.21-15.45-17.1-15.45-17.1l-.01.02-.38-.7c-.09-.56.15-.98 1.47-1.69 2.05-1.09-4.25-1.07-4.25-1.07-3.65-.23-1.68 1.65-4.16 3.52-12.6 9.48-60.74-12.82-60.74-12.82-4.83-2.4-9.06-4.7-12.91-6.87a62.23 62.23 0 0 1-5.7-3.3 188.14 188.14 0 0 1-9.72-5.63c-.73-.4-.43 0-.3.17 5.6 4.49 12.75 9.43 20.38 12.55 14.92 6.1-2.84-.2-17.84-8.49l-.06-.04c-5.05-2.82-9.8-5.89-12.9-8.81-3.99-3.78-2.74-3.13.76-.58.6.5 4.78 3.97 4.88 3.67.09-.31-4.07-3.65-4.65-4.11-1.82-1.74-3.22-3.3-3.9-4.54-1.04-1.9-.56-1.65 1.54-.02 0 0 2.07 1.84 3.28 2.64 0 0 1.12.82.57-.21a31.8 31.8 0 0 0-2.71-2.85c-.67-.71-1.2-1.4-1.55-2.02l-.1-.18c-2.84-4.22-2.64-6.99-1.8-8.36.82-1.38-.4-1.86-2.41-1.84v.03c-2.62-.04-5.77.78-7.62 1.34v-.03c-1.1.31-2.11.65-2.93.97-4.54 1.84-3.04 8.19-20.39 26.18-15.52 16.09-33.25 16.54-37.95 16.34l.01.03a9.03 9.03 0 0 0-.67-.06h-.03c-.4-.03-.78-.02-1.1.01-10.29 1.1 3.28 11.31-16.76 16.78l.01.02c-.82.33-.23.47-.2.48 4.43-.12 20.44-1.64 26.43-2.23 1.2-.1.94.17.65.35-7.03 2.49-33.32 11.88-6.92 4.17 30.21-8.82 33.3-13.36 41.67-19.43 4.68-3.39 12.02-10.27 17.6-15.7.09-.04.28-.1.27.13h.02c-.28 4.51-.6 10.18-.91 16.39 0 0-.03.86-.05.86l-1.34.03-.2.01h-.02a51.88 51.88 0 0 0-9.18 1.39c-.93.28-1.71.6-2.55.95a68.44 68.44 0 0 0-10.85 5.24c-5.46 3.3-3.27 3.88-2.32 3.98a1.72 1.72 0 0 1 .34.03h.01c.48.06 1.29.3 2.03 1.12l.78.9c.91.81 3.6 2.75 6.55.5 0 0-.39 2.14 1.64 2.56.33.05 1.36.12 2.23-.87.63-.6 1.23-1.29 1.9-2.02h-.02s.98-1.29 2.8-2.5l.6-.37.16-.1c.15-.08.3-.17.48-.25a11.86 11.86 0 0 1 6.5-1.34l.1-.02c-.2 6.9-.27 12.82-.3 17.53v.24c-.04.21-.15.5-.49.6h-.02a.85.85 0 0 1-.21.04c-35.98 5.88-66.78 14.7-93.4 22.74-.34.2-1.36.86.37.51v.03l58.24-12.66c.93-.05.41.36.16.53-16.43 4.54-48.55 13.76-67.75 21.56l-.32.15a25.37 25.37 0 0 0-3.45 1.71l-.03.02-.02.01-.53.35-.05.04c-.97.7-1.1 1.08-1.1 1.08-2.3 3.43 6.2 6.57-4.4 15.67h.02c-.46.5-.01.4.01.4 2.33-1.18 9.1-5.16 13.91-8.03 4.6-2.62 5.04.37 5.07 1.2.02.84-2.8 3.25-1.53 3.4 1.26.12.75.97-3.27 5.42-1.33 1.48.42.44 3.33-1.59l.83-.64s9.9-7.93 10.6-8.07c.22-.04.38-.05.5-.04l4.18-3.17-4.16 3.17c.24.03.25.18-.15.58-.51.5-18.68 13.95-24.02 17.9l-1.53 1.16c-.06.15-.31.72.42.3l.08-.01c10.47-6.78 32.97-21 54.21-32.08h.03l.64-.34.97-.5.21-.11h.02c1.1-.58 2.2-1.1 3.28-1.64h-.03s.8-.3.95-.74h.01c.07-.18-.04-.35-.78-.21-.45.09-1.1.3-1.1.3v-.02l-17.66 5.4c-.29 0-.74-.04.14-.42l-.04-.02 29.26-10.5 7.33-2.4 3.82-1.09a275.83 275.83 0 0 1 26.55-8.81c.25 0 .55.08.59.54.14 1 .2 2.68.2 2.68l.04-.02.04 1.04s-.24 9.65-2.15 11.56a3 3 0 0 1-.51.34c-.52.26-1.24.51-2.05.76-.53.14-.92.22-.92.22l-.01.01-5.58 1.22-.97.19h-.05l-.1.03h-.02c-.12.04-.23.1-.2.18-.02.07.14.1.79-.05.98-.22 3.55-.77 5.2-1.09l.66-.1c.38-.06.75-.07.22.14l-1.13.37c-.7.2-1.35.35-1.35.38 0 0-.12.06.18 0h.01l.1-.03.65-.15c1.14-.26 3.06-.7 3.98-.72.21.02.45.07.58.2l.03.04a.3.3 0 0 1 .06.12h-.01c.08.18-.14.38-.3.5-.52.29-1.64.68-3.93 1.34 0 0-2.96.78-.04.16 1.86-.39 3.6-.88 4.66-1.08.13-.03.33-.06.53-.07h.42c.06.01.15.05.22.16l.15.24c.1.13.24.25.48.32.73.22-.1.44-.1.44l-.25.08-4.12 1.28c-.21.06-2.86.78-2.85.9.02.1 1.07-.2 2.04-.47l4.74-1.14c.35-.06.5-.05.25.08 0 0-2.6.92-2.53 1.01h.08c.35-.05 1.7-.53 2.39-.76l1.79-.58c.22-.05.33-.04.2.08 0 0-1.74 1.02-1.66 1.18.06.13 1.96-.82 2.84-1.26l.28-.12a.66.66 0 0 1 .47 0c.07.01.1.05.11.1a.2.2 0 0 1 0 .08.64.64 0 0 1-.2.4l-1.12.97c-.53.42-1.82 1.33-1.82 1.33-.26.19-.85.62.22.08a23.93 23.93 0 0 1 3.49-1.5v-.01s.4-.08.88-.26c0 0 .34-.12.88-.4l.18-.1c2-1.1 6.12-4.36 5.8-12.38l-.2-3.08c-.15-1.95-.31-4.7-.49-8.03a.6.6 0 0 1 .3-.29l11.92-2.35c6.15-1.1 12.43-2.09 19.25-3.18 9.41-1.5 18.57-2.42 27.3-2.9l.14-.01c18.42-1.02 34.96-.1 48.05 1.32 0 .89 0 1.73.02 2.5-4.03-.33-8.47-.6-13.34-.8-3.93-.21-23.02-1.13-36.57.02-.27 0-.54.02-.8.03l-2 .21s-2.04.19-4 .43c-18.94 2.18-26.1 3.81-28.57 4.54l-.07.02-.24.08c-.34.1-.57.19-.7.24-1.27.45-2.96 1.14.74.5 5.18-.9 4.28.14 3.86.25-.43.11-.34.95 2.35.02 2.55-.88 17.83-3.42 18-1.73 0 .1-.12.44-1.57.98-1.75.66-.5.43-.2.37.76-.13 2.96-.66 4.67-1.08l.31-.05 4.49-.77a168.86 168.86 0 0 1 18.37-1.54l.56-.02c6.81-.27 16-.5 25.57-.29h.03c3.2.1 6.26.22 9.17.38.07 1.43.2 2.5.41 2.98 1.3 3.04 3.37.86 3-2.3a4.08 4.08 0 0 1-.04-.48l4.36.3c1.53.14 3.04.3 4.52.47l-2.54-.31c8.38.68 14.74 1.5 18.28 2 .17.02.47.05.6 0 .02 0 .05-.01.05-.04.02-.12-.3-.23-.48-.3-3.99-.98-12.05-2.63-24.9-3.83l-.1-2.41c13.2 1.58 22.37 3.6 25.75 4.41h-.02s.6.07.07-.28l-.16-.08c-3.07-1.36-11.25-4.6-25.75-7.28-.07-2.07-.13-3.61-.18-5.84a117.03 117.03 0 0 0 12.61 4.65s5.89 2.57 8.34 3.73l.34.15s.5.17.1-.23l-.13-.1-.98-.66c-1.53-.97-6.26-3.49-7.52-4.16-8.36-4.2-12.83-5.8-12.83-5.8-.07-2.85-.12-6.47-.16-8.28 0 0 4.8 5.2 11.36 10.56.8.62 3.68 2.89 5.58 4.24 1.57.99 9.56 6.03 9.76 5.44.21-.66-5.98-4.31-9.07-6.93"/></svg>