<svg xmlns="http://www.w3.org/2000/svg" viewBox="0 0 394 85"><path fill="#76787b" d="M155.16 28.45v38.78h8.67v-50.4h-12l-15.25 37.44-14.8-37.43h-12.49v50.39h8.15V28.45h.28l15.63 38.78h6.15l15.38-38.78h.28zm25.35 2.67h-8.5v36.1h8.5v-36.1zm-4.16-15.39c-1.4 0-2.61.48-3.62 1.42a4.68 4.68 0 0 0-1.51 3.54c0 1.39.5 2.56 1.5 3.48a5.17 5.17 0 0 0 3.63 1.38c1.43 0 2.65-.47 3.66-1.38 1-.92 1.51-2.1 1.51-3.48a4.8 4.8 0 0 0-1.47-3.5 5.06 5.06 0 0 0-3.7-1.46m29.5 14.52c-3.9 0-7.38.83-10.33 2.48-2.97 1.65-5.26 4-6.82 7a22.31 22.31 0 0 0-2.34 10.38c0 3.42.77 6.55 2.28 9.3a15.99 15.99 0 0 0 6.36 6.43c2.7 1.5 5.82 2.26 9.28 2.26 4.04 0 7.49-.8 10.25-2.4l.11-.06v-7.79l-.36.27a15.96 15.96 0 0 1-4.15 2.16c-1.5.52-2.87.79-4.07.79-3.34 0-6.01-1.04-7.95-3.1-1.95-2.06-2.94-4.95-2.94-8.59 0-3.66 1.03-6.62 3.06-8.81 2.02-2.18 4.7-3.3 7.97-3.3 2.79 0 5.51.95 8.08 2.82l.36.26v-8.2l-.11-.06c-.97-.55-2.3-1-3.93-1.33a23.45 23.45 0 0 0-4.75-.51m23.7 7.12v-6.25h-8.5v36.1h8.5V48.77c0-3.14.72-5.72 2.12-7.67a6.5 6.5 0 0 1 5.5-2.9c.76 0 1.62.12 2.55.37.92.25 1.59.52 1.98.8l.36.26v-8.56l-.14-.06a8.8 8.8 0 0 0-3.33-.51 8.7 8.7 0 0 0-5.68 2.04 11.5 11.5 0 0 0-3.27 4.84h-.09zm31.81 23.7c-3.12 0-5.58-1.04-7.32-3.07-1.74-2.05-2.62-4.97-2.62-8.69 0-3.83.88-6.82 2.63-8.9 1.73-2.08 4.17-3.13 7.24-3.13 2.98 0 5.36 1 7.06 2.99 1.7 1.99 2.57 4.96 2.57 8.83 0 3.93-.81 6.94-2.42 8.95-1.6 2-4 3.02-7.14 3.02m.39-30.82c-5.96 0-10.7 1.74-14.06 5.18-3.37 3.44-5.08 8.2-5.08 14.16 0 5.66 1.67 10.2 4.96 13.52 3.29 3.31 7.76 4.99 13.3 4.99 5.78 0 10.41-1.77 13.78-5.26 3.37-3.48 5.08-8.2 5.08-14.02 0-5.74-1.6-10.32-4.76-13.61-3.17-3.3-7.62-4.96-13.22-4.96m35.87 0c-4.05 0-7.4 1.03-9.96 3.07a9.82 9.82 0 0 0-3.88 8.02c0 1.7.28 3.2.84 4.47a8.99 8.99 0 0 0 2.57 3.36c1.14.94 2.9 1.92 5.22 2.93 1.96.8 3.42 1.48 4.35 2.02.9.53 1.55 1.06 1.91 1.57.36.5.54 1.2.54 2.05 0 2.43-1.82 3.6-5.56 3.6a17.67 17.67 0 0 1-9.52-3.3l-.35-.25v8.28l.13.06a21.3 21.3 0 0 0 4.56 1.4c1.8.38 3.44.57 4.87.57 4.4 0 7.93-1.04 10.52-3.1a10.02 10.02 0 0 0 3.91-8.2 9.4 9.4 0 0 0-2.1-6.2c-1.4-1.67-3.8-3.2-7.16-4.56-2.68-1.08-4.4-1.97-5.1-2.65a3.71 3.71 0 0 1-1.03-2.79c0-1.04.43-1.89 1.3-2.57a5.86 5.86 0 0 1 3.66-1.03c1.44 0 2.9.23 4.36.67a13.9 13.9 0 0 1 3.8 1.76l.36.24v-7.85l-.14-.06a18.8 18.8 0 0 0-3.86-1.08c-1.57-.29-3-.43-4.24-.43m32.62 30.82c-3.12 0-5.58-1.04-7.32-3.07-1.74-2.05-2.62-4.97-2.62-8.69 0-3.83.88-6.82 2.63-8.9 1.73-2.08 4.17-3.13 7.24-3.13 2.98 0 5.36 1 7.05 2.99 1.71 1.99 2.58 4.96 2.58 8.83 0 3.93-.81 6.94-2.42 8.95-1.6 2-4 3.02-7.14 3.02m.38-30.82c-5.95 0-10.68 1.74-14.05 5.18-3.37 3.44-5.08 8.2-5.08 14.16 0 5.65 1.67 10.2 4.96 13.52 3.29 3.31 7.76 4.99 13.3 4.99 5.77 0 10.41-1.77 13.78-5.26 3.37-3.48 5.08-8.2 5.08-14.02 0-5.74-1.6-10.32-4.76-13.61-3.17-3.3-7.62-4.96-13.23-4.96m63.3 7.79v-6.92h-8.6V20.35l-.3.08-8.07 2.48-.16.05v8.16h-12.76v-4.55c0-2.12.48-3.74 1.41-4.82a4.96 4.96 0 0 1 3.94-1.6c1.22 0 2.47.28 3.74.84l.32.15v-7.3l-.15-.06a14.58 14.58 0 0 0-4.78-.63 14 14 0 0 0-6.78 1.62 11.58 11.58 0 0 0-4.65 4.6 13.7 13.7 0 0 0-1.65 6.75v5h-5.99v6.92h6v29.19h8.6V38.04h12.75V56.6c0 7.64 3.6 11.51 10.7 11.51 1.17 0 2.4-.14 3.66-.4a10.1 10.1 0 0 0 2.66-.85l.1-.07V59.8l-.34.24a6 6 0 0 1-1.73.75 6.6 6.6 0 0 1-1.7.29c-1.66 0-2.9-.45-3.66-1.34-.77-.89-1.16-2.45-1.16-4.64V38.04h8.6z"/><path fill="#f26521" d="M0 0h39.96v39.96H0z"/><path fill="#8cc63f" d="M44.12 0h39.96v39.96H44.12z"/><path fill="#00aeef" d="M0 44.14h39.96V84.1H0z"/><path fill="#ffc20d" d="M44.12 44.14h39.96V84.1H44.12z"/></svg>