<svg xmlns="http://www.w3.org/2000/svg" fill-rule="evenodd" stroke-miterlimit="1.4" viewBox="0 0 800 800" clip-rule="evenodd" stroke-linejoin="round">
  <path fill="none" d="M0 0h800v800H0z"/>
  <path fill="#1f5eff" d="M406.7 702.7c28 29.7 67 40 117 31 18-3.2 35.5-13.5 52.8-31 11.4-11.5 22.8-25.8 34.2-42.8 30.5-45.6 31.7-87.3 3.6-125.2-7.4-10-16.6-20.5-27.6-31.5-28-27.8-55.8-41.6-83-41.2-27.3.4-57.4 12.6-90.3 36.5-12.7 9.2-22.8 17.5-30 25-18.8 18.8-28.8 38.5-30 59-1 17.6 4 39.8 14.6 66.7 5.6 14.7 18.5 32.5 38.7 53.5z"/>
  <path fill="#25dd00" d="M310.4 332.2c19.8-21 25.5-49 17-84-3-12.5-11-24.5-24.2-36-8.6-7.6-19.2-15-31.7-22.4-33.4-19.7-63-18.8-88.6 2.7-7 5.7-14 12.6-21.2 21-18.5 21-27 41-25.7 60.3 1.5 19.3 11.4 40 29.7 62.3 7 8.8 13.4 15.5 19 20.4 14 12.4 28.4 18.6 43 18.7 12.4 0 28-4.5 46.6-13.2 10-4.5 22-14.4 36-29.6z"/>
  <path fill="#ff2676" d="M580.8 275.3c25 .8 46.2-11 64-35.4 6.3-8.8 9.4-20.4 9.4-35 0-9.4-1.2-20-3.5-32-6.4-31.4-23.7-49.3-52-53.5-7.6-1.2-16-1.7-25.5-1.7-24 0-42 5.7-53.6 17-11.6 11.5-19.4 29-23.4 52.6-1.5 9.2-2.3 16.8-2.3 23 0 15.5 4 27.8 12.3 37 7 7.6 18.7 14.8 35 21.7 8.6 4 21.8 6 39.5 6.3z"/>
  <path fill="#a34cff" d="M160.3 757c24.8.8 46-11 64-35.3 6.2-8.8 9.3-20.4 9.3-35 0-9.4-1.2-20-3.5-31.8-6.2-31.7-23.6-49.6-52-53.8-7.5-1-16-1.7-25.4-1.7-24 0-42 5.7-53.6 17-11.6 11.5-19.4 29-23.4 52.6-1.5 9.3-2.3 17-2.3 23 0 15.6 4 28 12.4 37 7 7.7 18.7 15 35 21.8 8.6 3.8 21.8 6 39.6 6.3z"/>
</svg>