<svg xmlns="http://www.w3.org/2000/svg" viewBox="0 0 1180 630">
  <path fill="#25dd00" d="M1084 132c-19.6-20-49.6-30.4-75.4-37-25.6-6.3-52.8-2.8-79-1.7-37.7 1.5-97.6 15.8-146.3 11.3C720.6 98.8 625 75 553 58.3c-67.3-15.7-131.8-46-200.6-53.8-70-8-170.8-5-219.2 5.7-30 6.6-59.3 30-71 58.3-12.7 30 5.8 84.5-4.3 121.8-10.2 37.4-52.3 65-56.5 102.2-4 37-2 95.7 31.3 120 41.7 30.7 148 49.5 219.2 63.6 68.2 13.6 147.7 9.7 207.4 21 52 9.8 98.7 40.5 151 46.8 54.4 6.6 127.6-12 174.8-7.2 38 4 70.8 33 109 37 46.4 4.7 133.2 1 170-8.2 22.3-5.6 43.7-25 50.5-47 8.5-27.8-1.6-79.7.8-119.4 3-49.6 22-133.6 16.8-178-4-33.7-27.8-68.2-48.4-89.2z"/>
  <path fill="#1f5eff" d="M162.5 102.3c23.6-15 55.3-18.3 81.8-18.7 26.4-.5 52 9 77.5 16.2 36.2 10 91.3 37.7 139.7 44.4 62.4 8.6 161 7.3 234.7 7.4 69.3 0 139-14.7 207.7-6.6 70 8.2 167.4 34.2 212 55.6 27.7 13.3 51 42.8 56 73 5.3 32-25 81-23.8 119.5 1.3 38.8 36 75.4 31.6 112.4-4.4 37-19.8 93.6-58 109.8-47.5 20.3-155.4 14.4-227.8 11.8-69.5-2.3-146-24.2-206.8-27-52.7-2-105.3 17-157.7 11.3-54.4-6-121.4-40.8-168.5-46.8-38-4.8-76.4 16-114.4 11-46.4-6-130-29.3-163.8-46.6-20.5-10.6-37-34.4-38.5-57.4-2-29 19.6-77.2 26.4-116.4 8.5-49 9-135 24.3-177.2 11.5-31.7 42.5-60 67.4-75.7z"/>
  <path fill="#000631" d="M127.8 101.3c22.3-17 53.5-23 80-25.7 26.2-2.7 52.6 4.6 78.5 9.5 37 7 94.2 29.8 143 32.3 63 3.2 161-6.6 234.5-12.8 69-6 137-23.3 206.3-24.4 71.5-1 171.5 14.3 216.2 37.3 27.2 14 54.3 38.2 62 68 8 31.4-18 82.6-13.5 121 4.6 38.4 42.3 72 41 109-1 37.3-11.6 95-48.2 114.4C1082 554 974 557.4 901.5 561c-69.4 3.6-147.6-11.6-208.3-9-52.7 2.2-103.5 26-156.2 24.7-54.7-1.3-124.5-30.3-172-32.2-38.3-1.6-74.8 22.4-113 20.8-46.8-2-132.2-18-167.3-32.4-21.3-8.8-39.8-31.2-43.3-54-4.5-28.6 13-78.5 16.3-118 4.2-49.6-2.7-135.5 9-178.8 8.6-32.7 37-63.4 60.5-81.2z"/>
  <path fill="#ff2676" d="M238.7 274.3c2-5.6 3-10.8 2.6-15.6-.4-5-1.8-10.6-4.2-16.7-2.6-6.8-5.6-11.5-9-14-6.6-5-16.8-7.8-30.5-8.3l-16.7-.7c-7.2-.7-12.3-2.3-15.3-4.6-4-3-5.7-7.8-5.2-14.4.7-7.4 5-12 13-14 5-1 10.8-1.6 17.4-1.6 4.4 0 9 .3 13.7.8 3 .3 5.3.5 7.2.5 8 0 13-2 14.3-5.7.8-2.3 1.2-4.6 1.2-7 0-7.3-4-11.4-12.4-12.3l-14.7-1.5h-5c-7.2 0-16.4 1-27.5 3-7.6 1.5-13.5 3.6-17.7 6.5-4.5 3-8.4 8-11.8 14.4-3.3 6.6-5 13.5-5 21 0 2 0 4 .3 5.8 1.2 11.4 5.6 19.5 13.2 24.5 6.2 4 15.4 6.4 27.6 7 11 .3 18.5 1 22.5 1.8 10 2.2 15.3 6.4 16 12.5.4 5.7-2.7 9.5-9.3 11.4-3.8 1-9.3 1.6-16.4 1.5-2 0-4.4 0-7 .3-4.2-.8-10.7-1.8-19.2-3l-4.5-.2c-7.8 0-12.6 3.4-14.3 10-.6 2.4-1 4.5-1 6.4 0 4.8 1.8 8.6 5.2 11.5 4.2 3.7 8.7 6 13.6 6.7 3.4.4 8.4 1 15 1.6 3 .4 7.8.2 14-.7 14-1.7 24.4-4 31-6.4 2.2-.8 4.7-2.2 7.4-4 1.5-1 3.7-2.8 6.6-5.2 1.7-1.3 3.4-4.8 5.4-10.5zm117.2 5.4c0-2-.5-4-1.3-5.8-1.8-4.5-3.7-14-5.7-29-1-7.6-1.6-15-1.6-22.3 0-2.6.2-6.4.7-11.6.6-5 .8-9 .8-11.6 0-9.5-4-15-12.2-16.4-1-.2-2.4-.3-3.6-.3-7.5 0-11.4 4.8-11.8 14.3 0 7.7-.3 19.4-.6 35-.3 11.8-1.2 20-2.7 24.4-3 8.7-9 13-17.8 13-9.4 0-14.6-3.8-15.4-11.3-.7-6-1-17.2-.5-33.6.3-13 .3-21 0-24.6-1.5-11.6-5.3-17.7-11.6-18.2-11.3-1-17.2 4.8-17.7 17-.7 13.3-.6 23 .2 29.4.4 3 1 11 1.6 23.6.6 9.7 1.7 17.5 3.2 23.5 2.2 8.2 7.2 14.2 15 18 6.7 3.2 14.6 4.6 23.8 4 10.4-.5 19-2.6 25.6-6.3 4.4-2.4 6.5-5.2 6.3-8.5 1 4.5 4 7.6 9.2 9.4 1.8.6 3.7 1 5.5 1 3.2 0 5.8-1.4 7.8-4.2 1.6-2.4 2.4-5.3 2.4-8.8zm93-103.6c-1.2-1.2-3-2.4-5.5-3.7-6.7-3.3-13.8-5-21.4-5-10.7.3-22 4-34 11-4.7 3-8.8 8.3-12 16-2.6 6.5-4.3 13.3-5 20.4-.6 7.4-1 14-1 19.7v18.2c0 6.5.7 15 1.8 26l2 14.7c.3 1.8 1.4 3.6 3.3 5.4 2.7 2.4 5.6 3.6 9 3.6.7 0 1.4 0 2.2-.3 2.4-.6 3.7-1 4-1.2l3-3.2c2.4-2.2 3.5-7.4 3.3-15.4-.2-8-2-21.3-5.7-40 9 1.8 17.3 2.7 25.2 2.7 5.3 0 9.2-.3 11.7-.7 3.2-.6 7-2 11-4 5.6-2.5 10.3-6.3 14.4-11.3 4-4.7 6-12 6-22 0-13.5-4-24-11.6-31.5zm-19 33.6c0 3.5-1.8 6.4-5.2 8.8-3 2.3-6.4 3.4-10 3.4-3 0-5.4-1.3-7.3-4-1.8-2.4-2.7-5-2.7-8 0-3.4 1.5-6.3 4.5-8.5 2.7-2 5.8-3 9.4-3 7.6.3 11.4 4.2 11.4 11.6zm126.2-5.3c-.2-16.3-9.2-26.5-27-30.5-6-1.4-11.7-2-17-2-10 0-18.3 2.6-24.6 8-12.5 8.7-18.8 24-18.8 45.7 0 5.2.3 10.4 1 15.5 3.3 30 10.7 48.3 22.3 54.6 7 3.8 14.2 5.7 21.3 5.7 4.6 0 9.3-.8 14-2.3 12.2-4 18-10.2 17.3-18.6-.5-6.8-3-10.2-8-10.2-1.3 0-2.7.2-4 .6-7 2.2-14 3-21.2 2-6-.5-10.6-5-14-13.3-2-5.3-3-10-3-14.4 0-1.6.2-3 .5-4.7 9.3 4 18 6.2 25.6 6.2 7.4 0 14-2 19.6-6 11.3-8.2 17-20.3 16.7-36.4zm-44.3-5c2-1 3.7-1.3 5-1.3 4 0 7 2.5 9 7.5 1.5 3.2 2 6 2 8.3 0 2.4-.6 4.3-2.2 5.6-3 2.6-6.7 3.8-11.5 3.5-3-.3-6-1.5-8.2-3.7-2.2-2-3.5-4.8-3.6-8-.2-5.2 3-9.3 9.7-12zm87.3 9.5c1-8.2.8-16.4-1-24.8-1.4-6.8-6.2-10-14.4-10-1.7 0-3.5 0-5.5.3-2.7-.2-5.7 1.6-9.2 5.3-2.3 2.5-3.4 7-3.4 13.5 0 3 .2 6.8.8 11.2 1 7.7 2.2 19.4 3.3 34.8 1.3 15.4 2.3 27 3.3 34.3 1 7.4 2 12.3 3 14.7 2 4 5.3 7 10.4 9.6 1 .4 2 .7 3.5.7 2.4 0 5-1 8-3 3.8-2.5 5.6-9 5.6-19.2 0-2.5 0-6.4-.5-11.5-.3-5-.5-9-.5-11.6 0-9.4 1.2-15.6 3.6-18.5 6.3-7.8 17-12.3 32-13.5 6.6-.5 9.6-5 9-13-.5-8.3-6-12.8-16-13.5-10.3-.8-20.8 4-31.6 14zm211 65.5c2-5.6 3-10.8 2.6-15.6-.5-5-2-10.6-4.3-16.7-2.7-6.8-5.7-11.5-9-14-6.6-5-16.8-7.8-30.5-8.3l-16.7-.7c-7.2-.7-12.3-2.3-15.2-4.6-4-3-5.8-7.8-5.2-14.4.8-7.4 5.2-12 13.2-14 5-1 10.7-1.6 17.3-1.6 4.4 0 9 .3 13.7.8 3 .3 5.3.5 7.2.5 8 0 12.8-2 14.3-5.7 1-2.3 1.3-4.6 1.3-7 0-7.3-4-11.4-12.4-12.3l-15-1.7h-5c-7.2 0-16.4 1-27.5 3-7.6 1.5-13.5 3.6-17.6 6.5-4.5 3-8.4 8-11.8 14.4-3.3 6.4-5 13.3-5 20.7 0 2 0 4 .3 6C706 221 710.5 229 718 234c6.3 4.2 15.5 6.5 27.7 7 11 .4 18.3 1 22.2 2 10 2 15.3 6.2 16 12.3.4 5.7-2.7 9.5-9.3 11.4-4 1.2-9.4 1.7-16.5 1.6-2 0-4.4 0-7 .3-4.3-.8-10.7-1.8-19.2-2.8l-4.5-.3c-8 0-12.7 3.4-14.4 10-.6 2.4-1 4.5-1 6.4 0 4.7 1.8 8.5 5 11.4 4.4 3.7 9 6 13.8 6.6 3.4.4 8.4 1 15 1.6 3 .4 7.8.2 14-.7 14.2-2 24.4-4 31-6.6 2.3-.8 4.8-2.2 7.5-4 1.6-1 3.8-2.8 6.7-5.2 1.6-1.3 3.4-4.8 5.3-10.5zm36.3-68.3c6 .2 11.3-2.8 15.6-9 1.6-2 2.3-5 2.3-8.7 0-2.4-.3-5-.8-8-1.5-8-5.7-12.5-12.6-13.6-1.7-.2-3.8-.4-6-.4-6 0-10.3 1.5-13 4.3-3 3-4.8 7.3-5.8 13.3-.3 2.2-.5 4-.5 5.7 0 4 1 7 3 9.4 1.8 2 4.6 4 8.5 5.6 2 1 5.3 1.5 9.7 1.6zm0 19.6c-5.4 1.2-8.8 7.3-10.3 18.5-.3 2-.7 10-1.4 24-.5 9.2-.5 15 0 17.6 1 7 4.3 11 9.7 13 2.4.7 4.8 1 7 1 2.5 0 4.8-.3 7-1.3 4-1.7 6-5 6-10.2.2-3 0-7.5-1-13.6-.6-6-1-10.7-1-13.7.5-7.4.3-14-.6-19.3-1.3-9.2-4-14.2-8.2-15-2.4-.5-4.2-.7-5.5-.7-.8 0-1.4 0-1.5.3zm49.7-58.4c-1.7-.6-3.2-.8-4.6-.8-4.3 0-7.7 2.3-10 6.8-3 6-4.5 12.6-4.2 20 .5 11.6 1 22 1.6 30.7.8 10.2 1.7 20.3 2.7 30.3l2.2 21.2c.8 8.2 2.3 14 4.4 17.4 2.2 4.5 5.3 7 9.2 7 2.3 0 5-1 8-2.5 1-1.3 2-3.4 2.7-6.2.8-2.7 1-5 .8-6.6 0-7.2.3-14.8.6-22.7.5-13 .3-27-.4-42 0-4 0-10-.3-18-.6-20.4-4.7-32-12.5-34.4zm50 0c-1.7-.6-3.2-.8-4.6-.8-4.3 0-7.7 2.3-10 6.8-3 6-4.5 12.6-4.2 20 .5 11.6 1 22 1.6 30.7.8 10.2 1.7 20.3 2.7 30.3l2.2 21.2c.8 8.2 2.3 14 4.4 17.4 2.2 4.5 5.3 7 9.2 7 2.3 0 5-1 8-2.5 1-1.3 2-3.4 2.7-6.2 1-2.7 1-5 .8-6.6 0-7.2.3-14.8.6-22.7.5-13 .4-27-.4-42 0-4 0-10-.2-18-.5-20.4-4.6-32-12.4-34.4zm87.2 19c-.6 2.2-1 6.8-1 13.7.2 7.7 0 13-1 16.2-1 3.5-2.2 6-3.3 7.2-1.4 1.8-3.6 3-6.6 3.6h-6.3c-3-.5-5.4-1-7.2-1.7-4-1.6-6-6.8-5.4-15.7.3-4.3.5-9 .5-13.8l-.2-6.5V183c0-4-2.8-6.7-8-8.4-2-.5-3.6-.8-4.7-.8-3 0-5.5 1.2-7.4 3.6-3 3.8-4.5 7.7-4.3 11.7l1 13.7c0 2.8.4 7.8.8 15 .4 6 .8 9.4 1 10.5.8 5.7 2.2 10.3 4.3 14 1.6 2.8 3.2 4.7 4.8 5.5l3 2c2 1 5.2 2 10 3 4.6 1 8 1.7 10.4 1.8 10.8.4 18.2-1 22.2-4.3l5-4-.5 3c0 4-.8 9-2.2 14.4-1 3.8-2.4 6.5-4.2 7.8-1.8 1.4-5 2.5-9.4 3-3.8 0-6.8.2-9 .3-1.3 0-4.4-1.3-9.5-4-.8-.8-2.6-2-5.3-3.6-1.2-.6-2.8-1-4.6-1-6 0-9.4 3-10.2 9.3-.5 3.6-.2 7 1 10 3 8.6 11.2 14 24.5 16.4 5.4.8 10.3 1.2 15 1 10.2 0 17.6-2.7 22.3-7.8 3.7-4 6.6-10.5 8.5-19.4.8-4 2-11.2 3-21.3l1.5-11.8c2.7-21 3.8-34.8 3.4-41L1063 183c-.3-2.8-1.2-5-2.6-6.4-1.5-1-4.2-2.2-8-3.3-1.4-.4-2.8-.6-4.2-.6-3 0-6.2.8-9.7 2.4-1.6 2.3-3 6.2-4.4 11.6z"/>
  <path fill="#a34cff" d="M184 379.6c0 5.7-3 9.2-8.7 10.4-1.4.3-6.7.3-16 .2-6.5 0-10.3-1.7-11.6-5-.4-1-.6-5.6-.5-13.4 0-6-.6-11.6-2-17.2-2.5-10.8-7-16.2-13.3-16.2-1.6 0-3.5.3-5.6 1-4.7 1.4-7.6 6.7-8.6 16-.3 2.6-.4 9.4-.3 20.3 0 7 .5 17 1.3 30.5l1.7 33c.6 10.8 1 17.8.8 20.8l.3 9.5c0 4 1 7 2.7 9 1.7 2 4.6 3 8.7 3.8 11.4 2 17.2-2 17.4-12 0-5-.2-11.8-.8-20.5-.6-8.8-.8-17-.7-24.6 0-7.3 2.4-10.8 7-10.5 3.7.3 9.6 0 17.8-1 7.3-.7 11 3.3 11.3 12.2l1 29c.3 6.8.8 11.5 1.5 14.2 1.4 5.5 4.3 9 8.6 10.2 2.2.6 4 1 6 1 4.2 0 7.5-1.7 10-5 2-2.8 3.2-6.5 3.5-11 .4-6.6 0-14.6-1.2-24-.8-5.2-2-13.2-3.2-23.8l-.5-11.6-1.5-31.5c-.2-4.6-.2-10.4 0-17.6.3-4.7-.5-8.7-2.2-12-2-4-5.4-6-9.7-6-1.6 0-3.6.5-5.8 1.5-4.5 2-7.2 7.8-8 17.8-.3 2.3-.3 9.6 0 22zm82.7-23.5l-5 2.2-2 1c-3.4 1.2-6 4.7-7.7 10.3-.5 1.6-.7 3-.7 4 0 4 1.7 7.5 5.2 10.5 3.4 3 7 4.5 11 4.5 1.3 0 2.4 0 3.2-.3 5.4-1 9.7-1.4 13-.7 3.3.7 6.2 3.3 8.6 7.8 1.5 2.7 2.2 6 2.2 10.3 0 2.6-.3 5.6-1 9 0 .3 0 1.4-.3 3.3l-4-3c-6-3.6-13.4-5.4-22.4-5.4-2 0-3.8 0-5 .2-9.2.7-16.8 4-23 10-6.3 6.2-9.4 13.6-9.4 22.6 0 13.4 5.6 24 16.8 31.7 3.8 2.8 8.8 4.3 14.8 4.6 6.6.4 13.2-.6 19.8-3 7.6-2.5 13-6 16.4-10.8l1.4-3c3 7 6.4 10.8 10.5 11.5l3.4.3c4.4 0 7.8-2 10-5.6.5-.7.8-1.8.8-3.3 0-3-1.4-7-4.2-11.4-2.4-3.8-3.6-10.6-3.6-20.4 0-4.8.3-10 1-16 1.7-18.7 2.2-30.5 1.5-35.3-.8-4.2-2.6-8.6-5.5-13.3-2-3.4-5.8-6.5-11.2-9.3-5.4-2.7-10-4-14-4h-10c-4.5-.2-8.2.4-11 1.6zm-4.2 99.7c-2 0-3.7-.5-5.3-1.4-3.4-2-4.8-5.6-4.2-11 .6-6 4.8-9.2 12.7-9.2 4.6 0 7.8 2.6 9.5 7.5.6 1.6 1 3 1 4 0 3.2-1.6 5.7-4.7 7.6-2.7 2-5.6 2.7-9 2.7zm160.7-77.4c-2-15.8-15.3-24-40.3-24.5-19-.5-31.4 4-37 13.6-3.4 5.6-5.7 15.4-7.2 29.4-1 11-1.3 21.3-.8 30.8 1.2 24.6 9 40 23.7 46 10.3 4.2 19.8 6.2 28.4 6 4-.2 10.4-1.4 19.4-3.7 8.2-4 12.2-8.8 12.2-14.8 0-2.3-.4-4.6-1.3-6.8-2.6-6.6-8-10-16-10-2.5 0-6.3.7-11.2 2-5 1-8.6 1.7-11.2 1.7-9 0-15-4.5-17.6-13.5-2.2-7-3.3-13.5-3.3-19 0-4.2.5-8 1.7-11.5 4.4-12.8 12.8-19.2 25.2-19.2 5.3 0 11.5 1 18.5 3.4 3.6 1 6.5 1.7 8.7 1.7 5.5 0 8.2-3 8.2-9v-3zm100 6.6L502 412.7c-5.7 7.5-11 14.3-16.4 20.5 7 3 14.2 6 21.3 8.8 8 4.5 12 10.2 11.4 17-.5 6-3 10-7.5 12-1.3.6-2.7 1-4 1-4.4 0-10.4-2.4-18-7l-20.7-12.6-.6 16.3c0 5.3-2.7 9-8.5 11.3-3 1.2-5.6 1.8-7.8 1.8-2.4 0-4.4-.6-6-1.8-4-3-6-7.6-6.2-13.8V450c-.3-13.6-1-28.4-2.2-44.6-1-16.6-1.5-29.3-1-38 .2-8.5 1.4-14.2 3.5-17 2.7-3.7 8-5.4 15.8-5 7 .5 11 7.5 11.5 21 .6 12 1 22.4 1 31.4v19c.4-1 1.3-2.6 2.8-5l5.3-7.8c3.7-6.4 9.6-16 17.6-29 8.8-13.5 16.3-20.2 22.3-20 6.4.4 11 3 14 7.8 1 1.5 1.5 3.2 1.5 5 0 4.6-2.7 10.5-8.2 17.7zm52.2-29l-5 2.2-2 1c-3.4 1.2-6 4.7-7.7 10.3-.4 1.6-.7 3-.7 4 0 4 1.7 7.5 5.2 10.5s7.2 4.5 11 4.5c1.3 0 2.4 0 3.3-.3 5.3-1 9.7-1.4 13-.7 3.3.7 6.2 3.3 8.6 7.8 1.5 2.7 2.2 6 2.2 10.3 0 2.6-.3 5.6-1 9 0 .3 0 1.4-.3 3.3l-4-3c-6-3.6-13.5-5.4-22.5-5.4-2 0-4 0-5.2.2-9 .7-16.7 4-23 10-6.2 6.2-9.3 13.6-9.3 22.6 0 13.4 5.6 24 16.8 31.7 3.8 2.8 8.8 4.3 14.8 4.6 6.6.4 13.2-.6 19.8-3 7.6-2.5 13-6 16.4-10.8l1.4-3c3 7 6.5 10.8 10.5 11.5 1 .2 2.2.3 3.3.3 4.4 0 7.7-2 10-5.6.5-.7.7-1.8.7-3.3 0-3-1.4-7-4.2-11.4-2.4-3.8-3.6-10.6-3.6-20.4 0-4.8.2-10 .7-16 1.8-18.7 2.3-30.5 1.5-35.3-.7-4.2-2.5-8.6-5.4-13.3-2-3.4-5.7-6.5-11-9.3-5.5-2.7-10.2-4-14.2-4H586c-4.6-.2-8.3.4-11 1.6zm-4 99.7c-2 0-3.8-.5-5.5-1.4-3.4-2-4.8-5.6-4.3-11 .6-6 4.8-9.2 12.7-9.2 4.6 0 7.8 2.6 9.5 7.5.5 1.6.8 3 .8 4 0 3.2-1.5 5.7-4.6 7.6-2.7 2-5.7 2.7-9 2.7zm163.3-54.4l-7.8-1c-3-.2-5.4-.2-7.7 0-.6.2-1.3.3-2 .3-1.5 0-3.3-.2-5.6-.6l1-20.8.8-15c1-13.7-3.6-21-13.4-22-7-.6-11.5 1.6-13.8 6.7-1.5 3-2 8.7-2 16.7l.4 34.5c-7.5.6-13.5.8-18 .4-5-.5-10 1-14.7 4.3-3.2 2-4.8 5-4.8 8.8 0 2 .3 4 1 6.2 2.8 8.4 9.3 12.6 19.6 12.6 5 0 11.2-1 18.3-2.6.3 18.3.5 30.4.8 36 .3 5.3.6 8.5 1 10 1.2 2.8 3.6 4.8 7.3 5.8 1 .3 2.4.4 4 .4 3.8 0 7-1.5 9.2-4.5 2-2.7 3-6 3-10s.3-10.7.6-20.3c.3-8.2.4-15 .4-20.5 6.4.3 11.8.5 16 .5 6.8 0 11-.5 12.3-1.3 3.2-2 5.4-3.4 6.5-4.6 1.5-2 2.3-4.4 2.4-7.7 0-4-1-6.8-3-8.2-5-3.5-9-5.2-12.2-5.2zM832 408c-2.2-1.4-6-2.5-11.8-3.4-1.8-.3-3.6-.4-5.3-.4-11.7 0-23 7-34.4 21 1-21.5 1.4-36.7 1.6-45.6V359.4c0-4.8-3-8.4-8.3-10.6-2.3-1-4.4-1.3-6.2-1.3-3.2 0-6.4 1-9.5 3.2-5 3.4-7.4 10-7.3 19.8 0 7.5.6 17 1.6 28.8L755 428l1.4 15.7c0 2.2.2 5 .5 8.8.3 4.3.3 10 0 16.8-.3 4.2 1.6 7.4 5.5 9.6 3.2 1.6 7 2.5 11.7 2.5 8.2 0 13.4-5.2 15.7-15.6 1.6-7.5 3-13 4.3-17 2.5-7.6 5.3-12.6 8.5-15 2-1.4 5-2.4 9-3 4-.4 7 3.7 9.8 12.5.8 2.4 3 12 7 28.8 2 5.2 5.4 7.8 10.5 7.8 10 0 15-6 15-18.2 0-2.7 0-5.8-.5-9.4-1-8.3-3-16.5-6.2-24.8-4.2-10.8-9-17.5-14.8-20.2zm83.4-49.5c-17.8-.8-30.4 2.7-37.7 10.5-4 4.5-7.2 10-9 16.3-1 3.4-2.3 9.6-3.7 18.6-.2 1.8-.4 4.2-.4 7 0 6.3.8 14.4 2.3 24.4 1.6 11 3.4 18.7 5.5 23.5 2.8 6.2 7.5 11.4 14 15.4 5.8 3.4 13.8 5.4 24 6 9.3.4 18-1.3 25.6-5.2 8.3-4 14.3-10.2 18.2-18.2 4-8 6-16.5 6-25.5 0-2.4-.2-4.6-.3-6.5-1.6-15-2.7-24.3-3.4-28-3.7-20.4-11.5-32.5-23.4-36.5-3.4-1.2-9.2-2-17.4-2.3zm15.7 71.3c.3 2.6.4 4.4.4 5.5 0 8-2.5 13.4-7.5 16.7-4 2.6-8 4-12 4-2.3 0-4.6-.6-6.8-1.4-6.3-2.4-9.7-9-10.4-19.3-.5-7.3-.8-16.3-1-27 0-8.4 1-14.4 3.5-18 2.8-4.2 8.3-6.2 16.2-6 6 0 10.3 3.4 13 10 1.5 4 2.6 10 3.3 17.8L931 430zm96-32.4c6.8.7 11.4 2.3 13.8 5 2.3 2.6 3.6 7.4 3.8 14.4.2 6 0 15-.7 27-.6 9.7-.3 16.7.7 21.3 2 8.2 6.5 12.6 13.7 13.4 9 1 14.2-5 15.4-17.5 0-1.4.3-6.6.4-15.8.2-9-.2-21.6-1.3-37.6-1.2-18-6-30-14.6-36-6-4.3-13.3-6.5-21.5-6.5-2.8 0-6.3.5-10.3 1.3-12.6 2.4-21 5.5-25 9 .4-1.7.5-3.5.5-5.4 0-2.6-.2-5-.7-7.8-1-4.5-4-7-9.2-7.6-10-1-16 2.7-18 11-1.2 4-1 13.4.3 28 1.5 17.4 2.2 28 2 32.2l-1.2 20.4c-.3 5-.5 9.8-.5 14 0 11.8 5.3 17.6 16 17.2 9.5-.4 13.8-8.6 13-24.7l-1-15.7c-.4-11.4.6-20.3 3-26.6 3.2-8.4 9-12.6 17.7-12.6 1 0 2 0 3 .2z"/>
</svg>